<?xml version="1.0" encoding="utf-8"?>
<!-- Generator: Adobe Illustrator 26.0.0, SVG Export Plug-In . SVG Version: 6.00 Build 0)  -->
<svg version="1.1" id="图层_1" xmlns="http://www.w3.org/2000/svg" xmlns:xlink="http://www.w3.org/1999/xlink" x="0px" y="0px"
	 viewBox="0 0 648 778.7" style="enable-background:new 0 0 648 778.7;" xml:space="preserve">
<style type="text/css">
	.st0{fill:#00FFFF;fill-opacity:0;}
	.st1{fill:url(#SVGID_1_);}
	.st2{fill:url(#SVGID_00000021819181968363249120000013774839014900215700_);}
	.st3{fill:url(#SVGID_00000060736531418202869630000009459130354392385201_);}
	.st4{fill:url(#SVGID_00000075149502717531245980000001124465613588275095_);}
</style>
<g transform="translate(95,34.875267028808594)">
	<g>
		<g>
			<rect x="-95" y="-34.9" class="st0" width="648" height="778.7"/>
			
				<linearGradient id="SVGID_1_" gradientUnits="userSpaceOnUse" x1="134" y1="778.6495" x2="134" y2="-5.053708e-02" gradientTransform="matrix(1 0 0 -1 95 743.7742)">
				<stop  offset="0" style="stop-color:#00C9FF"/>
				<stop  offset="1" style="stop-color:#92FE9D"/>
			</linearGradient>
			<path class="st1" d="M519.3,255.4L229-34.9L-61.4,255.4l225.9,225.9L-95,743.8H34.1l194.9-198l194.9,198H553L293.5,481.3
				L519.3,255.4z M67.7,255.4L229,94.1l161.3,161.3L229,416.8L67.7,255.4z"/>
		</g>
		<g>
			
				<linearGradient id="SVGID_00000137117267775486691950000006210711789350622091_" gradientUnits="userSpaceOnUse" x1="136.3" y1="431.4495" x2="136.3" y2="288.6494" gradientTransform="matrix(1 0 0 -1 95 743.7742)">
				<stop  offset="0" style="stop-color:#4481EB"/>
				<stop  offset="1" style="stop-color:#05BEFE"/>
			</linearGradient>
			<path style="fill:url(#SVGID_00000137117267775486691950000006210711789350622091_);" d="M235.5,312.3c-8.8,0-17.8,1-26.8,3.1
				s-16.9,4.9-23.5,8.4c-3.7,2-6.4,4.2-8,6.6c-1.6,2.3-2.4,5.1-2.4,8.3c0,3.9,1.1,7.1,3.2,9.5c2.2,2.4,4.9,3.7,8.3,3.7
				c2.2,0,5.8-1.2,10.7-3.7c7.7-3,14.3-5.3,19.9-6.9c5.6-1.6,11.1-2.4,16.6-2.4c8.8,0,15.1,2.1,19.1,6.3c3.9,4.2,5.9,10.9,5.9,20.1
				v6.4h-7c-20.4,0-36.4,1.3-48,3.9c-11.6,2.6-20,6.9-25.1,12.7s-7.7,13.7-7.7,23.8c0,8.1,2.1,15.4,6.4,21.9
				c4.3,6.6,10.2,11.7,17.7,15.5c7.5,3.7,15.8,5.6,25,5.6c9,0,16.9-2.1,23.7-6.2c6.8-4.1,11.8-9.8,15-17.2v6.2
				c0,4.9,1.5,8.8,4.6,11.8s7.1,4.5,12,4.5c5.2,0,9.3-1.5,12.3-4.4s4.5-6.9,4.5-12v-68.5c0-19.3-4.6-33.7-13.9-43.1
				C268.7,317,254.6,312.3,235.5,312.3z M258.5,396.3c0,9.9-3,18-8.9,24.3s-13.5,9.4-22.9,9.4c-6.2,0-11.4-1.9-15.6-5.7
				c-4.2-3.9-6.4-8.8-6.4-14.8c0-4.9,1.5-8.7,4.5-11.5s7.9-4.8,14.9-5.9c6.9-1.1,16.6-1.7,29.2-1.7h5.1v5.9H258.5z"/>
			
				<linearGradient id="SVGID_00000152964498641773357760000004721829565641961361_" gradientUnits="userSpaceOnUse" x1="-55.2" y1="490.1495" x2="-55.2" y2="289.0966" gradientTransform="matrix(1 0 0 -1 95 743.7742)">
				<stop  offset="0" style="stop-color:#4481EB"/>
				<stop  offset="1" style="stop-color:#05BEFE"/>
			</linearGradient>
			<path style="fill:url(#SVGID_00000152964498641773357760000004721829565641961361_);" d="M118.6,253.6c-6.9,0-12.4,4-16.5,12.1
				L40,384.5l-62.3-118.8c-4.1-8-9.8-12.1-17.1-12.1c-5.3,0-9.4,1.6-12.5,4.9s-4.6,7.6-4.6,13v166.2c0,5.2,1.4,9.4,4.2,12.4
				c2.8,3,6.7,4.5,11.5,4.5c4.9,0,8.8-1.5,11.7-4.6c2.9-3.1,4.4-7.2,4.4-12.2V323.6l48,89c2.2,4.3,4.7,7.4,7.3,9.3
				c2.6,1.8,5.7,2.8,9.3,2.8c3.5,0,6.6-1,9.2-2.9c2.6-2,5.1-5,7.3-9.1l47.7-90.4V438c0,5.2,1.4,9.4,4.2,12.4s6.6,4.5,11.5,4.5
				s8.8-1.5,11.8-4.5s4.5-7.1,4.5-12.4V271.6c0-5.4-1.6-9.8-4.8-13C128.1,255.3,123.9,253.6,118.6,253.6z"/>
			
				<linearGradient id="SVGID_00000063631710873108755540000001554103926933365390_" gradientUnits="userSpaceOnUse" x1="315.9501" y1="470.6494" x2="315.9501" y2="289.435" gradientTransform="matrix(1 0 0 -1 95 743.7742)">
				<stop  offset="0" style="stop-color:#4481EB"/>
				<stop  offset="1" style="stop-color:#05BEFE"/>
			</linearGradient>
			<path style="fill:url(#SVGID_00000063631710873108755540000001554103926933365390_);" d="M500.5,428.5l-7.6-0.6
				c-12.7-0.9-19.1-8.3-19.1-22.2v-63.8h23.8c5,0,8.9-1.1,11.7-3.4c2.7-2.2,4.1-5.5,4.1-9.8s-1.4-7.6-4.1-9.8
				c-2.7-2.2-6.6-3.4-11.7-3.4h-23.8v-25.8c0-5-1.6-9.1-4.8-12.1s-7.4-4.5-12.6-4.5c-5.4,0-9.7,1.5-12.9,4.5s-4.8,7-4.8,12.1v25.8
				h-14c-5,0-8.9,1.1-11.7,3.4c-1.1,0.9-2,2.1-2.7,3.3c-0.7-1.3-1.5-2.4-2.7-3.3c-2.7-2.2-6.6-3.4-11.7-3.4h-23.8v-25.8
				c0-5-1.6-9.1-4.8-12.1s-7.4-4.5-12.6-4.5c-5.4,0-9.7,1.5-12.9,4.5s-4.8,7-4.8,12.1v25.8h-14c-5,0-8.9,1.1-11.7,3.4
				c-2.7,2.2-4.1,5.5-4.1,9.8s1.4,7.6,4.1,9.8c2.7,2.2,6.6,3.4,11.7,3.4h14v61.4c0,31.5,15.7,48.3,47.2,50.6l7.6,0.6
				c6.7,0.4,11.9-0.6,15.6-3c3.7-2.3,5.5-5.7,5.5-10.2c0-7.9-4.7-12.1-14-12.7l-7.6-0.6c-12.7-0.9-19.1-8.3-19.1-22.2V342H396
				c5.1,0,9-1.1,11.7-3.4c1.1-0.9,2-2,2.7-3.3c0.7,1.3,1.5,2.4,2.7,3.3c2.7,2.2,6.6,3.4,11.7,3.4h14v61.3
				c0,31.5,15.7,48.3,47.2,50.6l7.6,0.6c6.7,0.4,11.9-0.6,15.6-3c3.7-2.3,5.5-5.7,5.5-10.2C514.6,433.3,509.9,429.1,500.5,428.5z"/>
		</g>
	</g>
</g>
</svg>
