<?xml version="1.0" encoding="utf-8"?>
<!-- Generator: Adobe Illustrator 26.0.0, SVG Export Plug-In . SVG Version: 6.00 Build 0)  -->
<svg version="1.1" id="图层_1" xmlns="http://www.w3.org/2000/svg" xmlns:xlink="http://www.w3.org/1999/xlink" x="0px" y="0px"
	 viewBox="0 0 886.5 363.3" style="enable-background:new 0 0 886.5 363.3;" xml:space="preserve">
<style type="text/css">
	.st0{fill:none;}
	.st1{fill:url(#SVGID_1_);}
	.st2{fill:url(#SVGID_00000135670847826675425390000013529353905580592790_);}
</style>
<rect x="-278.2" y="-358.3" class="st0" width="1920" height="1080"/>
<g transform="translate(70.39500427246094,88.95010757446289)">
	<linearGradient id="SVGID_1_" gradientUnits="userSpaceOnUse" x1="85.1" y1="248.4" x2="85.1" y2="-63">
		<stop  offset="0" style="stop-color:#00C9FF"/>
		<stop  offset="1" style="stop-color:#92FE9D"/>
	</linearGradient>
	<path class="st1" d="M85.1,169.2l78,79.2h51.6l-103.8-105l90.3-90.3L85.1-63L-31,53.1l90.3,90.3l-103.8,105H7.1L85.1,169.2z
		 M20.6,53.1l64.5-64.5l64.5,64.5l-64.5,64.5L20.6,53.1z"/>
	<g transform="translate(67,12.71489143371582)">
		<g>
			<g transform="scale(1)">
				<g>
					
						<linearGradient id="SVGID_00000181082261729310779690000000775410566590108054_" gradientUnits="userSpaceOnUse" x1="-1293.173" y1="4.1161" x2="-1293.173" y2="3.1152" gradientTransform="matrix(571.1472 0 0 201.6144 739055.6875 -648.8625)">
						<stop  offset="0" style="stop-color:#4481EB"/>
						<stop  offset="1" style="stop-color:#05BEFE"/>
					</linearGradient>
					<path style="fill:url(#SVGID_00000181082261729310779690000000775410566590108054_);" d="M353.2-20.8c5.2,0,9.4,1.6,12.6,4.9
						s4.8,7.6,4.8,13l0,0v166.2c0,5.2-1.5,9.4-4.5,12.4s-6.9,4.5-11.8,4.5l0,0c-4.9,0-8.7-1.5-11.5-4.5s-4.2-7.1-4.2-12.4l0,0V47.7
						l-47.7,90.4c-2.2,4.1-4.7,7.2-7.3,9.1c-2.6,2-5.7,2.9-9.2,2.9l0,0c-3.6,0-6.7-0.9-9.3-2.8c-2.6-1.9-5.1-5-7.3-9.3l0,0l-48-89
						v114.3c0,5-1.5,9.1-4.4,12.2c-2.9,3.1-6.8,4.6-11.7,4.6l0,0c-4.9,0-8.7-1.5-11.5-4.5s-4.2-7.1-4.2-12.4l0,0v-166
						c0-5.4,1.5-9.8,4.6-13c3.1-3.3,7.3-4.9,12.5-4.9l0,0c7.3,0,13,4,17.1,12.1l0,0L274.6,110l62-118.8
						C340.8-16.8,346.3-20.8,353.2-20.8L353.2-20.8z M470,37.9c19.1,0,33.3,4.7,42.6,14.2c9.2,9.4,13.9,23.8,13.9,43.1l0,0v68.5
						c0,5.1-1.5,9.1-4.5,12s-7.1,4.4-12.3,4.4l0,0c-4.9,0-8.9-1.5-12-4.5s-4.6-6.9-4.6-11.8l0,0v-6.2c-3.2,7.3-8.2,13-15,17.2
						c-6.8,4.1-14.7,6.2-23.7,6.2l0,0c-9.2,0-17.5-1.9-25-5.6c-7.5-3.7-13.4-8.9-17.7-15.5c-4.3-6.5-6.4-13.8-6.4-21.9l0,0
						c0-10.1,2.6-18.1,7.7-23.8c5.2-5.8,13.5-10,25.1-12.7c11.6-2.6,27.6-3.9,48-3.9l0,0h7v-6.4c0-9.2-2-15.9-5.9-20.1
						s-10.3-6.3-19.1-6.3l0,0c-5.4,0-11,0.8-16.6,2.4s-12.3,3.9-19.9,6.9l0,0c-4.9,2.4-8.4,3.7-10.7,3.7l0,0c-3.4,0-6.1-1.2-8.3-3.7
						c-2.2-2.4-3.2-5.6-3.2-9.5l0,0c0-3.2,0.8-5.9,2.4-8.3c1.6-2.4,4.2-4.6,8-6.6l0,0c6.6-3.6,14.4-6.4,23.5-8.4
						C452.2,38.9,461.2,37.9,470,37.9L470,37.9z M461.3,155.5c9.4,0,17-3.1,22.9-9.4c5.9-6.3,8.9-14.4,8.9-24.3l0,0v-5.9H488
						c-12.6,0-22.3,0.6-29.2,1.7c-6.9,1.2-11.9,3.1-14.9,5.9s-4.5,6.6-4.5,11.5l0,0c0,6,2.1,10.9,6.4,14.8
						C449.9,153.6,455.1,155.5,461.3,155.5L461.3,155.5z M633.4,154.1c9.4,0.6,14,4.8,14,12.7l0,0c0,4.5-1.8,7.9-5.5,10.2
						c-3.6,2.4-8.8,3.4-15.6,3l0,0l-7.6-0.6c-31.4-2.2-47.2-19.1-47.2-50.6l0,0V67.6h-14c-5,0-8.9-1.1-11.7-3.4
						c-2.7-2.2-4.1-5.5-4.1-9.8l0,0c0-4.3,1.4-7.6,4.1-9.8c2.7-2.2,6.6-3.4,11.7-3.4l0,0h14V15.4c0-5,1.6-9.1,4.8-12.1
						s7.5-4.5,12.9-4.5l0,0c5.2,0,9.4,1.5,12.6,4.5c3.2,3,4.8,7,4.8,12.1l0,0v25.8h23.8c5.1,0,9,1.1,11.7,3.4
						c2.7,2.2,4.1,5.5,4.1,9.8l0,0c0,4.3-1.4,7.6-4.1,9.8c-2.7,2.2-6.6,3.4-11.7,3.4l0,0h-23.8v63.8c0,13.9,6.4,21.2,19.1,22.2l0,0
						L633.4,154.1z M735.1,154.1c9.4,0.6,14,4.8,14,12.7l0,0c0,4.5-1.8,7.9-5.5,10.2c-3.6,2.4-8.8,3.4-15.6,3l0,0l-7.6-0.6
						c-31.4-2.2-47.2-19.1-47.2-50.6l0,0V67.6h-14c-5,0-8.9-1.1-11.7-3.4c-2.7-2.2-4.1-5.5-4.1-9.8l0,0c0-4.3,1.4-7.6,4.1-9.8
						c2.7-2.2,6.6-3.4,11.7-3.4l0,0h14V15.4c0-5,1.6-9.1,4.8-12.1s7.5-4.5,12.9-4.5l0,0c5.2,0,9.4,1.5,12.6,4.5
						c3.2,3,4.8,7,4.8,12.1l0,0v25.8h23.8c5,0,8.9,1.1,11.7,3.4c2.7,2.2,4.1,5.5,4.1,9.8l0,0c0,4.3-1.4,7.6-4.1,9.8
						c-2.7,2.2-6.6,3.4-11.7,3.4l0,0h-23.8v63.8c0,13.9,6.4,21.2,19.1,22.2l0,0L735.1,154.1z"/>
				</g>
			</g>
		</g>
	</g>
</g>
</svg>
